<svg width="1728" height="355" viewBox="0 0 1728 355" fill="none" xmlns="http://www.w3.org/2000/svg">
<g clip-path="url(#clip0_354_2)">
<rect width="1728" height="355" fill="#626937"/>
<path d="M-5.95589 299.931C-4.64155 299.858 -3.67577 298.51 -2.99162 297.522C-1.85176 295.878 -1.10997 293.974 -0.75711 292.004C0.453464 293.934 2.17284 295.55 4.17828 296.611C5.84802 297.492 9.68295 299.088 10.6524 296.421C11.6158 293.766 8.94308 291.459 6.8365 290.517C4.99359 289.692 2.9747 289.299 1.22095 288.273C0.524389 287.866 -0.121674 287.387 -0.710706 286.845C-1.06712 286.519 -1.40224 286.17 -1.71306 285.8C-1.71741 285.795 -1.72051 285.791 -1.72367 285.788L-1.72288 285.786C-1.71991 285.785 -1.7183 285.782 -1.71753 285.781C-1.80479 285.395 -1.90488 285.013 -2.01796 284.631C-2.02443 284.544 -2.03011 284.455 -2.03539 284.368C-2.0064 284.191 -1.98214 284.014 -1.96325 283.836C-2.05363 283.236 -2.10896 282.638 -2.13602 282.037C-2.14021 281.94 -2.14446 281.843 -2.14645 281.745C-2.28398 277.031 -0.651115 272.326 0.734796 267.838C1.71094 264.675 2.47757 261.485 2.97155 258.253C3.79046 261.844 4.82706 265.378 6.09001 268.835C6.27202 269.334 6.45753 269.848 6.64989 270.368C6.75823 270.659 6.86908 270.952 6.98322 271.245C7.02146 271.409 7.05969 271.573 7.10215 271.736C8.16363 275.9 10.3997 279.768 13.6271 282.573C15.3402 284.063 19.9042 286.779 20.6119 282.834C21.1657 279.756 18.5548 276.715 16.0421 275.4C14.541 274.615 12.9301 274.058 11.3782 273.387C10.164 272.861 8.89481 272.269 7.88143 271.392C7.8167 271.239 7.75401 271.085 7.69233 270.93C7.24755 269.837 6.85104 268.72 6.46196 267.612C6.45554 267.593 6.4478 267.574 6.44216 267.554C5.13087 263.819 4.0864 259.995 3.29158 256.113C3.28628 256.086 3.27836 256.063 3.26935 256.04C3.49561 254.034 3.61097 252.012 3.60015 249.968C3.59702 249.369 3.58361 248.77 3.55972 248.173C3.47784 246.009 3.26635 243.856 2.92901 241.729C2.68907 240.208 2.38354 238.697 2.0178 237.205C5.06342 242.794 8.52668 248.144 12.3549 253.213C12.3858 253.256 12.4161 253.296 12.4491 253.339C12.9068 253.944 13.3703 254.546 13.8392 255.142C14.0419 255.403 14.2475 255.662 14.454 255.92C22.0062 265.406 30.8549 273.851 40.6417 280.984C41.1404 281.348 41.6414 281.707 42.1441 282.064C42.1602 282.076 42.1761 282.088 42.193 282.098C44.0582 283.42 45.9552 284.69 47.8819 285.909C50.3348 287.462 52.8363 288.934 55.3799 290.322C57.268 291.352 59.1794 292.336 61.1144 293.273C61.7219 293.872 62.299 294.494 62.8422 295.138C62.7868 295.262 62.7859 295.41 62.8834 295.546C64.8789 298.292 66.0034 301.561 66.1807 304.904C66.143 304.944 66.1134 304.994 66.0928 305.056C65.4682 306.986 63.5882 307.903 61.9598 308.85C60.529 309.682 59.3066 310.668 58.4847 312.134C57.4508 313.981 55.8548 318.24 58.9677 319.026C61.9688 319.786 64.1073 315.961 65.1648 313.742C66.4423 311.059 67.087 308.093 66.9765 305.134C66.9677 304.859 66.9508 304.584 66.9274 304.309C66.9187 304.202 66.9086 304.094 66.8965 303.986C66.844 303.464 66.7667 302.947 66.6698 302.435C66.4829 301.453 66.2163 300.492 65.8726 299.559C66.5902 300.885 67.1921 302.284 67.6658 303.756C67.7937 304.149 67.9113 304.546 68.0197 304.95C68.1128 305.297 68.2003 305.645 68.2837 305.993C68.8855 308.527 69.229 311.109 69.5746 313.691C69.6155 313.989 69.6556 314.288 69.6951 314.586C69.7731 315.157 69.8521 315.726 69.9352 316.294C69.3146 317.971 68.8725 319.723 68.8919 321.514C68.8997 322.247 69.016 322.956 69.1776 323.655C68.6866 325.757 67.1209 327.53 66.1556 329.454C65.26 331.244 64.4732 334.202 66.394 335.635C67.2269 336.257 68.2958 336.135 69.1226 335.551C70.1397 334.828 70.5172 333.587 70.7272 332.415C70.9689 331.06 71.1273 329.671 71.0275 328.298C70.9253 326.929 70.4847 325.652 70.1146 324.343C70.0534 324.126 69.9998 323.909 69.9533 323.695C69.8073 323.025 69.7319 322.363 69.7159 321.708C69.6843 320.453 69.8701 319.22 70.201 317.998C70.3075 318.645 70.4256 319.289 70.5566 319.931C71.2848 323.504 72.4572 327.098 74.5069 330.083C74.6111 330.234 74.7186 330.385 74.8271 330.534C74.9783 330.739 75.1331 330.941 75.2929 331.141C75.298 331.349 75.2816 331.558 75.2456 331.763C75.237 331.823 75.2257 331.881 75.2124 331.94C74.9116 333.329 73.8478 334.626 73.2995 335.896C72.5922 337.534 72.762 339.453 74.2016 340.625C75.3058 341.524 77.1348 341.743 78.1076 340.51C79.2554 339.058 78.4995 336.714 77.9961 335.09C78.4281 335.474 78.8815 335.835 79.3557 336.16C80.8039 337.154 83.5345 338.302 85.0867 336.802C85.7286 336.181 85.6418 335.252 85.063 334.633C84.2496 333.764 82.7462 333.711 81.656 333.448C80.0197 333.053 78.3917 332.553 76.8959 331.806C76.837 331.747 76.7776 331.686 76.7203 331.625C76.4879 331.38 76.265 331.129 76.0502 330.873C75.7747 330.541 75.5125 330.199 75.2649 329.849C74.8978 329.329 74.5596 328.789 74.2477 328.232C72.786 325.631 71.8964 322.667 71.3041 319.753C71.0768 318.637 70.8887 317.512 70.7211 316.384C70.7859 316.208 70.8535 316.03 70.9238 315.854C71.3373 316.382 71.7255 316.932 72.0896 317.497C72.2548 317.755 72.4141 318.016 72.5663 318.28C73.1402 319.271 73.6402 320.299 74.1701 321.317C75.5114 323.897 77.3579 325.907 79.5773 327.751C80.8478 328.805 83.3857 331.278 84.6026 328.731C85.6482 326.542 83.767 324.389 82.1064 323.253C79.2404 321.292 75.8497 320.178 73.3236 317.723C73.2438 317.646 73.1529 317.613 73.0635 317.612C72.6313 316.902 72.163 316.215 71.66 315.553C71.5219 315.37 71.3794 315.183 71.231 315C71.2317 314.998 71.2297 314.999 71.2297 314.999C71.2151 314.881 71.1296 314.793 71.0204 314.748C70.8308 314.53 70.6274 314.325 70.4073 314.15C70.1089 311.929 69.8262 309.703 69.3945 307.508C69.7676 308 70.1491 308.486 70.5405 308.961C70.5384 308.961 70.5397 308.962 70.5397 308.962C70.5479 309.033 70.5863 309.104 70.6605 309.166C70.71 309.208 70.7616 309.25 70.8121 309.29C71.4463 310.045 72.1082 310.776 72.8033 311.477C75.0558 313.742 77.8174 315.92 80.9449 316.786C82.9137 317.331 87.1617 317.312 87.0406 314.316C86.9266 311.449 84.3162 309.924 81.7073 310.001C80.099 310.05 78.5255 310.478 76.9195 310.552C74.9076 310.641 72.9473 310.01 71.3773 308.764C70.5393 307.767 69.7508 306.728 68.9927 305.666C68.8913 305.243 68.7818 304.823 68.6646 304.405C67.576 300.538 65.6476 297.13 63.0506 294.194C66.3423 295.726 69.6943 297.125 73.098 298.385C75.1525 299.431 77.3562 300.12 79.616 300.614C84.7472 302.223 89.9778 303.53 95.2813 304.519C96.8424 304.812 98.4091 305.076 99.9817 305.313C100.552 305.399 101.124 305.481 101.696 305.559C101.971 305.667 102.244 305.774 102.515 305.879C105.009 306.843 107.499 307.893 109.648 309.508C109.78 309.606 109.908 309.706 110.036 309.808C113.601 312.634 115.983 316.625 119 319.996C119.122 320.303 119.238 320.612 119.349 320.918C119.19 320.977 119.078 321.127 119.153 321.337C120.04 323.834 119.068 326.369 118.387 328.8C117.822 330.812 117.244 333.436 118.677 335.215C119.753 336.548 122.001 336.743 122.925 335.116C123.444 334.2 123.597 333.03 123.707 331.998C123.823 330.9 123.803 329.791 123.672 328.696C123.558 327.767 123.355 326.858 123.067 325.98C124.934 328.977 126.939 331.909 130.515 332.659C131.367 332.837 132.46 332.958 133.099 332.211C133.738 331.46 133.921 329.941 133.852 328.992C133.77 327.868 133.126 327.05 132.29 326.36C131.192 325.455 130.007 324.643 128.802 323.888C125.996 322.128 122.969 320.745 119.813 319.741C119.758 319.683 119.705 319.624 119.652 319.566C118.42 318.201 117.284 316.727 116.159 315.297C115.88 314.939 115.602 314.585 115.323 314.237C113.968 312.545 112.536 310.897 110.876 309.504C110.677 309.336 110.473 309.173 110.265 309.012C110.16 308.93 110.052 308.848 109.944 308.768C108.352 307.592 106.574 306.714 104.753 305.946C108.039 306.326 111.342 306.588 114.65 306.732C115.561 306.773 116.474 306.804 117.386 306.825C120.968 306.913 124.553 306.863 128.133 306.676C131.447 306.863 134.774 307.183 137.962 308.126C138.439 308.267 138.908 308.424 139.371 308.596C139.678 308.711 139.98 308.832 140.28 308.959C140.653 309.208 141.006 309.481 141.34 309.774C142.373 310.684 143.216 311.799 143.865 313.036C143.476 315.351 140.542 317.381 139.687 319.346C139.096 320.701 139.196 322.185 139.476 323.594C139.726 324.845 140.191 326.377 141.538 326.808C142.665 327.171 143.868 326.56 144.614 325.707C145.64 324.531 145.992 322.938 146.142 321.429C146.429 318.564 146.026 315.584 144.765 312.996C144.72 312.904 144.674 312.812 144.626 312.722C144.568 312.607 144.508 312.496 144.446 312.384C144.3 312.126 144.145 311.871 143.981 311.623C143.849 311.422 143.711 311.228 143.568 311.036C143.44 310.866 143.307 310.698 143.169 310.533C143.113 310.467 143.057 310.401 142.998 310.336C143.168 310.436 143.338 310.538 143.507 310.643C143.575 310.686 143.645 310.73 143.713 310.774C143.959 310.931 144.201 311.091 144.441 311.257C144.71 311.443 144.978 311.635 145.24 311.832C145.889 312.316 146.517 312.829 147.125 313.372C147.171 313.414 147.217 313.455 147.263 313.497C147.443 313.66 147.621 313.824 147.798 313.99C148.146 314.731 148.508 315.47 148.874 316.211C148.742 316.343 148.697 316.55 148.874 316.711C150.256 317.97 149.67 320.151 149.371 321.766C148.964 323.959 148.558 326.152 148.151 328.347C147.554 331.568 146.279 335.827 148.849 338.519C149.779 339.492 151.311 340.123 152.545 339.289C153.866 338.397 154.274 336.436 154.532 334.977C155.146 331.508 154.568 327.937 153.458 324.645C152.571 322.011 151.362 319.519 150.136 317.034L150.137 317.032C149.906 316.569 149.674 316.102 149.446 315.634C150.594 316.847 151.677 318.121 152.728 319.421C152.747 319.471 152.782 319.516 152.836 319.554C152.991 319.749 153.147 319.944 153.302 320.139C153.496 320.582 153.643 321.05 153.776 321.53C154.107 322.718 154.431 323.904 154.845 325.068C155.528 326.986 156.402 329.256 158.415 330.107C160.123 330.83 162.048 330.04 162.388 328.112C162.725 326.196 161.581 324.355 160.247 323.112C158.375 321.366 155.96 320.156 153.641 319.09C153.534 319.04 153.427 318.991 153.321 318.943C153.037 318.594 152.75 318.244 152.458 317.898C151.407 316.641 150.313 315.417 149.157 314.267C150.787 315.014 152.423 315.818 154.077 316.543C158.357 318.424 162.746 319.781 167.396 318.256C170.055 317.385 173.573 314.999 173.254 311.757C173.107 310.255 171.923 309.262 170.477 309.069C168.729 308.838 167.196 309.692 165.87 310.765C164.141 312.166 162.593 313.584 160.534 314.497C158.568 315.368 156.44 315.778 154.3 315.688C154.235 315.685 154.178 315.695 154.13 315.718C152.129 314.834 150.176 313.842 148.172 312.973C147.931 312.868 147.691 312.765 147.447 312.666C147.358 312.585 147.267 312.507 147.176 312.43C146.906 312.196 146.632 311.969 146.354 311.746C146.147 311.581 145.939 311.419 145.728 311.26C145.675 311.218 145.622 311.177 145.567 311.138C145.643 311.151 145.718 311.163 145.796 311.175C145.796 311.173 145.796 311.173 145.796 311.173C146.299 311.253 146.808 311.306 147.318 311.333C149.055 311.43 150.812 311.242 152.494 310.761C154.36 310.227 157.623 309.103 157.77 306.75C157.834 305.746 157.194 304.891 156.326 304.464C155.366 303.992 154.293 304.106 153.346 304.581C152.038 305.24 151.165 306.468 150.319 307.62C149.425 308.842 148.426 309.859 147.151 310.554C146.568 310.516 145.988 310.442 145.416 310.334C144.876 310.232 144.345 310.101 143.822 309.94C142.799 309.297 141.724 308.727 140.589 308.247C140.303 308.125 140.014 308.01 139.719 307.899C139.555 307.839 139.392 307.78 139.226 307.723C138.988 307.64 138.75 307.562 138.509 307.487C137.92 307.303 137.326 307.142 136.725 307C135.508 306.709 134.272 306.496 133.028 306.335C135.163 306.15 137.294 305.914 139.418 305.631C140.327 305.638 141.23 305.497 142.113 305.244C148.324 304.289 154.474 302.915 160.506 301.122C162.039 300.666 163.561 300.182 165.076 299.671C165.094 299.679 165.115 299.685 165.138 299.69C168.739 300.451 172.355 301.4 176.003 301.919C178.8 302.319 182.094 302.014 184.003 299.614C184.701 298.738 185.294 297.338 184.47 296.357C183.597 295.318 181.666 295.353 180.426 295.283C177.419 295.115 174.4 295.571 171.487 296.33C170.791 296.511 170.101 296.71 169.415 296.923C169.089 297.021 168.766 297.124 168.444 297.23C168.917 296.77 169.357 296.272 169.773 295.754C170.167 295.263 170.538 294.755 170.889 294.24C171.852 292.835 172.746 291.413 172.908 289.683C173.057 288.101 172.785 286.442 172.258 284.959C171.452 282.687 169.1 278.829 166.141 279.87C163.223 280.897 163.5 284.723 164.678 286.916C165.647 288.717 167.183 290.128 168.183 291.906C168.782 292.973 169.173 294.26 169.026 295.471C168.254 296.415 167.389 297.276 166.397 297.94C165.62 298.462 164.767 298.861 163.82 299.081C163.65 299.121 163.561 299.24 163.539 299.372C162.758 299.625 161.975 299.87 161.192 300.109C155.916 301.71 150.552 302.992 145.135 303.952C146.501 303.187 147.772 302.241 148.893 301.291C149.632 300.663 150.333 299.991 150.991 299.282C150.991 299.282 150.993 299.282 150.993 299.281C151.046 299.225 151.099 299.167 151.15 299.11C151.15 299.11 151.151 299.109 151.152 299.107C151.429 298.804 151.699 298.493 151.959 298.175C152.312 297.828 152.626 297.441 152.895 297.024C154.38 296.364 156.114 296.243 157.697 295.904C159.93 295.425 161.984 294.421 162.811 292.136C163.11 291.311 163.596 289.841 163.191 288.99C162.821 288.212 161.634 287.805 160.881 287.525C160.024 287.203 159.065 287.084 158.204 287.479C157.107 287.983 156.284 289.092 155.538 290.002C154.996 290.663 154.487 291.35 154.013 292.058C153.871 291.034 153.491 290.05 152.847 289.205C151.625 287.603 149.599 287.747 147.944 288.634C147.249 289.006 146.535 289.627 146.496 290.474C146.456 291.378 147.192 291.991 147.75 292.585C148.65 293.541 149.686 294.676 150.231 295.887C150.479 296.439 150.57 297.151 150.551 297.828C150.538 297.877 150.536 297.927 150.544 297.974C150.532 298.237 150.501 298.491 150.457 298.727C150.118 299.099 149.766 299.46 149.396 299.811C147.418 301.694 144.833 303.646 142.06 304.462C141.152 304.603 140.241 304.733 139.33 304.856C138.861 304.918 138.393 304.98 137.923 305.038C134.655 305.442 131.373 305.73 128.086 305.903C125.092 305.724 122.062 305.57 119.068 305.858C118.545 305.909 118.024 305.973 117.506 306.057C114.235 305.982 110.967 305.791 107.708 305.485C105.764 305.302 103.825 305.079 101.892 304.812C99.602 304.497 97.3226 304.124 95.055 303.694C91.9452 303.103 88.8588 302.404 85.8017 301.598C85.954 301.617 86.1082 301.635 86.2605 301.653C91.023 302.22 95.9219 302.843 100.691 301.901C100.842 301.871 100.992 301.839 101.141 301.805C101.459 301.734 101.773 301.655 102.082 301.568C102.249 301.597 102.418 301.624 102.586 301.646C102.823 301.677 103.059 301.702 103.296 301.719C104.696 301.824 106.116 301.682 107.491 301.393C108.413 301.201 109.315 300.941 110.201 300.636C110.306 300.828 110.585 300.955 110.818 300.78C113.632 298.676 117.34 300.727 120.309 301.218C121.682 301.447 123.223 301.478 124.468 300.739C125.513 300.119 126.371 298.952 125.949 297.698C125.522 296.431 124.092 295.844 122.883 295.644C121.452 295.409 119.989 295.683 118.624 296.149C116.116 297.003 113.813 298.354 111.368 299.372C110.856 299.584 110.34 299.784 109.813 299.959C108.084 300.538 106.28 300.954 104.456 300.982C104.25 300.985 104.046 300.983 103.842 300.976C107.383 299.588 110.428 297.202 113.229 294.541C115.855 292.047 118.533 289.428 120.767 286.51C121.766 285.629 122.799 284.788 123.877 284.017C123.917 284.019 123.96 284.013 124.008 283.997C126.58 283.156 129.07 284.872 131.548 285.299C133.809 285.687 136.796 284.945 137.822 282.635C138.259 281.654 138.092 280.526 137.249 279.832C136.274 279.026 134.868 279.01 133.67 279.145C130.689 279.484 127.832 280.624 125.27 282.18C124.729 282.508 124.201 282.856 123.684 283.217C123.258 283.514 122.842 283.821 122.432 284.138C123.011 283.229 123.541 282.289 124.009 281.315C124.745 279.783 125.31 278.147 125.651 276.475C125.762 276.447 125.859 276.366 125.901 276.217C125.98 275.935 126.055 275.647 126.126 275.357C126.241 274.898 126.344 274.429 126.433 273.955C126.569 273.251 126.673 272.536 126.737 271.819C126.853 271.604 126.974 271.392 127.099 271.182L127.1 271.181C128.289 270.18 130.007 270.007 131.55 270.009C133.201 270.009 134.844 270.062 136.477 269.737C139.429 269.147 142.634 266.968 142.647 263.621C142.652 262.282 141.976 260.854 140.579 260.553C139.131 260.239 137.493 261.138 136.238 261.767C133.195 263.289 130.494 265.48 128.337 268.122C127.786 268.795 127.275 269.497 126.804 270.224C126.798 269.551 126.749 268.883 126.642 268.233C126.441 266.98 125.772 265.981 124.886 265.107C123.984 264.215 122.95 263.356 121.721 262.972C119.841 262.385 117.058 263.047 116.145 264.995C115.047 267.338 118.148 269.173 119.794 269.991C121.41 270.793 123.791 271.741 125.134 273.264C125.175 273.309 125.213 273.354 125.25 273.401C125.233 274.047 125.174 274.692 125.08 275.334C124.843 276.95 124.382 278.543 123.75 280.044C122.848 282.188 121.617 284.149 120.205 285.985C119.369 286.726 118.557 287.495 117.762 288.279C119.476 284.305 119.335 279.654 117.087 275.794C116.382 274.583 115.495 273.388 114.365 272.547C113.412 271.838 111.858 271.257 110.776 272.08C109.692 272.904 110.331 274.564 110.547 275.647C110.862 277.216 111.245 278.777 111.864 280.254C113.154 283.337 116.464 286.175 116.14 289.764C116.125 289.945 116.099 290.129 116.063 290.316C116.04 290.433 116.065 290.534 116.12 290.613C115.577 291.17 115.027 291.718 114.479 292.26C114.237 292.498 113.995 292.735 113.755 292.971C110.92 295.748 107.872 298.434 104.24 300.004C104.91 299.232 105.505 298.393 106.015 297.505C106.273 297.057 106.509 296.597 106.722 296.124C107.457 294.506 107.927 292.762 108.09 290.981C108.271 289.004 108.374 285.249 105.937 284.59C105.033 284.345 104.08 284.763 103.459 285.435C102.722 286.235 102.521 287.327 102.682 288.375C102.923 289.952 103.904 291.224 104.709 292.546C105.369 293.633 105.796 294.778 105.942 296.001C105.732 296.452 105.5 296.893 105.246 297.321C104.52 298.549 103.628 299.663 102.593 300.624C102.419 300.679 102.243 300.733 102.065 300.782C101.948 300.817 101.829 300.85 101.709 300.88C101.299 300.987 100.887 301.079 100.474 301.162C96.3995 301.959 92.1803 301.56 88.0974 301.095C85.3821 300.786 82.5946 300.483 79.8933 299.897C77.7338 299.222 75.5919 298.492 73.4703 297.709C72.5897 297.384 71.7115 297.049 70.8383 296.706C67.7059 295.476 64.6203 294.126 61.5894 292.661C61.4351 292.51 61.2799 292.36 61.1218 292.213C61.1346 292.215 61.1475 292.218 61.1602 292.22C64.1772 292.755 67.205 292.517 70.2322 292.233C72.0651 292.061 73.8989 291.873 75.7292 291.832C75.8108 291.828 75.8907 291.827 75.9717 291.827C78.4651 293.199 81.0962 294.311 83.8282 295.116C85.2175 295.525 86.6317 295.858 88.0595 296.108C89.1789 296.304 90.4274 296.587 91.5302 296.14C92.572 295.718 93.2947 294.732 93.8445 293.789C94.3809 292.871 94.2615 292.029 93.5005 291.298C91.6559 289.522 88.8509 289.152 86.3979 289.337C85.1669 289.43 83.9569 289.66 82.7494 289.911C85.4253 288.675 87.8149 286.656 89.0996 284.084C89.9057 282.469 89.0306 280.772 87.2756 280.424C85.215 280.014 83.4871 281.794 82.4076 283.327C80.691 285.767 79.6132 288.957 76.7024 290.247C76.499 290.337 76.4588 290.523 76.5168 290.681C76.2024 290.816 75.8804 290.951 75.5542 291.079C74.0324 291.121 72.5088 291.254 71.0121 291.397C68.4738 291.639 65.9159 291.897 63.3679 291.718C62.188 291.633 61.0403 291.431 59.9165 291.137C59.2635 290.967 58.6176 290.764 57.9791 290.539C57.2022 290.264 56.4351 289.953 55.6746 289.617C53.4785 288.417 51.3156 287.152 49.1877 285.825C48.922 285.659 48.6584 285.493 48.3935 285.326C48.0764 285.125 47.7587 284.921 47.4419 284.717C46.5273 284.128 45.6223 283.527 44.7224 282.915C43.9926 282.42 43.2663 281.917 42.5464 281.406C32.8765 274.553 24.0919 266.427 16.537 257.277C18.2991 258.31 20.175 259.129 22.1251 259.724C23.0177 259.998 23.9279 260.223 24.8486 260.4C24.8468 260.411 24.8448 260.422 24.8438 260.433C25.1562 260.508 25.468 260.589 25.7756 260.678C28.7446 261.529 31.5072 263.055 33.8125 265.129C34.1917 265.471 34.5535 265.826 34.9012 266.193C35.2193 266.528 35.5234 266.875 35.8147 267.231C36.2078 267.709 36.5787 268.203 36.9278 268.716C37.0465 269.129 37.1514 269.543 37.2556 269.944C37.6775 271.57 38.0312 273.214 38.5722 274.805C39.5354 277.63 41.3843 280.523 44.3791 281.45C45.4596 281.786 47.1794 282.026 47.9728 280.965C48.719 279.97 47.9081 278.269 47.5322 277.27C46.4991 274.529 44.7497 272.092 42.5648 270.167C40.9543 268.749 39.112 267.633 37.1243 266.876C36.8464 266.769 36.5656 266.67 36.2809 266.579C36.0847 266.345 35.8816 266.116 35.6732 265.892C35.0905 265.261 34.4664 264.667 33.8083 264.11C32.2198 262.766 30.4379 261.67 28.5364 260.85C29.3039 260.891 30.0759 260.904 30.8506 260.88C33.0432 260.812 35.21 260.532 37.367 260.169C39.744 260.232 42.0778 260.556 44.2512 261.686C45.578 262.377 46.814 263.221 48.0534 264.063C48.0144 264.231 48.0699 264.422 48.2696 264.51C53.6371 266.877 54.4084 276.049 61.234 275.897C62.3556 275.872 63.4985 275.476 64.2991 274.656C65.2039 273.728 65.3032 272.377 65.0102 271.176C64.3891 268.638 62.2156 266.861 59.9045 265.905C58.2799 265.233 56.5399 264.893 54.822 264.554C53.1006 264.214 51.3809 263.877 49.6596 263.537C49.3878 263.483 49.1147 263.429 48.8429 263.375C48.7043 263.349 48.5991 263.392 48.5305 263.47C47.0213 262.442 45.5241 261.392 43.8596 260.645C42.7089 260.129 41.5217 259.817 40.3125 259.632C43.9542 258.931 47.5869 258.155 51.2877 257.916C53.9711 257.745 56.695 257.856 59.2958 258.484C59.5181 258.537 59.7416 258.595 59.9624 258.656C60.0707 258.687 60.179 258.719 60.2888 258.751C60.4751 258.807 60.6607 258.864 60.8449 258.926C60.8881 258.941 60.9302 258.954 60.9728 258.97C61.1585 259.033 61.3438 259.099 61.5267 259.17C61.6005 259.196 61.6739 259.225 61.7461 259.254C61.7474 259.254 61.7474 259.254 61.7487 259.255C63.5974 260.602 64.8657 262.983 66.2516 264.674C68.4406 267.347 71.8756 268.675 75.2802 268.921C76.536 269.011 77.8433 268.715 78.5776 267.588C79.3138 266.462 79.2459 264.983 78.7909 263.775C77.5631 260.507 74.0609 259.171 70.9104 258.538C68.7559 258.106 66.5668 257.905 64.3752 257.928C65.7352 257.186 66.9944 256.26 68.1086 255.165C70.063 253.244 71.9299 250.589 71.7636 247.723C71.6316 245.446 69.8465 242.847 67.3234 243.067C65.9291 243.191 65.1929 244.387 64.7184 245.584C64.1579 247.001 63.9511 248.525 63.7783 250.026C63.4701 252.704 63.1238 256.093 61.005 257.951C60.9411 258.007 60.8744 258.062 60.8066 258.116C60.0322 257.872 59.2503 257.677 58.46 257.525C58.46 257.525 58.46 257.525 58.4592 257.526C53.6787 256.61 48.6349 257.268 43.8415 258.171C41.6501 258.583 39.4482 259.033 37.2414 259.392C36.0164 259.368 34.7823 259.408 33.553 259.44C34.196 259.174 34.8075 258.822 35.3715 258.35C36.8627 257.106 37.5738 255.298 38.3831 253.575C38.4859 253.355 38.591 253.137 38.6995 252.923C38.7099 252.9 38.7218 252.878 38.7344 252.855C39.6898 252.102 40.9755 251.797 42.1434 251.491C43.7033 251.081 45.2224 250.561 46.6811 249.866C49.4516 248.547 52.9039 246.484 53.5811 243.214C54.1191 240.612 52.5693 237.662 49.6339 237.885C48.17 237.996 46.8279 238.925 45.6717 239.77C44.3289 240.75 43.129 241.913 42.0837 243.209C39.9236 245.887 38.5114 249.101 37.9911 252.488C37.9749 252.604 37.9567 252.719 37.9419 252.836C37.7688 253.197 37.6037 253.563 37.4338 253.928C36.8867 255.109 36.3112 256.273 35.4352 257.231C34.1332 258.656 32.3797 259.168 30.5282 259.46C30.4108 259.458 30.2955 259.455 30.1798 259.45C30.0632 259.446 29.972 259.486 29.9086 259.55C28.899 259.686 27.8728 259.779 26.8841 259.94C25.5812 259.804 24.2806 259.57 22.9822 259.207C20.1109 258.406 17.403 257.104 14.9918 255.371C11.2661 250.686 7.85854 245.744 4.81308 240.579C3.46174 238.289 2.18769 235.956 0.988664 233.586C-0.226738 229.793 -1.85765 226.141 -3.87971 222.707C-8.71913 210.355 -11.6203 197.234 -12.4687 183.923C-13.0969 174.071 -12.6149 164.123 -10.9785 154.365C-9.4084 145.01 -6.88116 135.601 -2.98154 126.92C-1.88645 124.479 -0.739308 122.06 0.325572 119.603C0.522141 119.149 -0.212671 118.937 -0.407618 119.388C-2.44935 124.097 -4.69411 128.675 -6.40272 133.522C-8.05268 138.206 -9.41361 142.991 -10.4848 147.838C-12.6214 157.507 -13.6161 167.416 -13.4874 177.299C-13.2998 191.691 -10.7438 206.029 -5.90625 219.528C-5.50402 220.656 -5.08443 221.776 -4.64844 222.889C-3.15461 226.718 -1.47177 230.471 0.394786 234.132C1.11041 236.432 1.66299 238.767 2.05515 241.127C2.10766 241.447 2.1579 241.767 2.20408 242.089C2.51356 244.182 2.69863 246.291 2.75921 248.406C2.58192 249.707 2.2482 250.984 1.72952 252.192C1.06452 253.742 0.0633709 255.149 -1.18469 256.262C-3.24001 256.332 -5.37142 255.083 -7.43923 255.182C-9.28664 255.27 -11.4281 256.645 -11.0037 258.788C-10.5497 261.077 -7.42449 261.26 -5.60948 260.836C-3.36027 260.311 -1.56666 258.781 -0.278582 256.911C-0.0885038 256.635 0.0920245 256.351 0.25928 256.062C0.284118 256.019 0.299932 255.976 0.308241 255.934C0.316095 255.896 0.317695 255.858 0.311701 255.822C1.1523 254.866 1.8496 253.773 2.37444 252.601C2.33861 257.926 0.700043 263.201 -2.37471 267.583C-2.95848 268.416 -3.59283 269.212 -4.2699 269.966C-4.53095 270.258 -4.79989 270.545 -5.07482 270.825C-5.07893 270.831 -5.08333 270.836 -5.0902 270.841C-7.29905 272.006 -9.83836 272.445 -12.2892 272.847C-15.1092 273.309 -18.6171 273.599 -20.576 276.001C-22.0136 277.762 -22.0891 280.935 -19.8106 282.003C-18.5629 282.588 -17.0962 282.293 -15.8514 281.829C-14.311 281.254 -12.8724 280.413 -11.5412 279.446C-8.73842 277.414 -5.78954 274.671 -4.46059 271.361C-4.43173 271.291 -4.40477 271.219 -4.37725 271.149C-3.9208 270.673 -3.48249 270.181 -3.06076 269.674C-1.04926 267.249 0.547053 264.471 1.61276 261.453C1.2495 263.219 0.803549 264.975 0.277592 266.711C-1.07191 271.164 -2.74451 275.797 -2.90985 280.466C-2.92275 280.841 -2.92571 281.216 -2.91864 281.591C-2.91499 281.814 -2.90728 282.035 -2.89469 282.258C-2.8668 282.793 -2.8147 283.328 -2.73814 283.863C-2.75225 284.007 -2.77317 284.15 -2.79748 284.293C-2.79999 284.292 -2.80183 284.289 -2.80272 284.284C-2.80154 284.294 -2.80132 284.305 -2.80031 284.315C-2.85772 284.661 -2.9338 285.003 -3.03008 285.339C-3.1776 285.862 -3.37232 286.374 -3.61461 286.866C-4.38563 288.43 -5.56156 289.503 -6.85179 290.626C-7.96035 291.593 -8.85155 292.7 -9.14994 294.172C-9.40247 295.421 -9.25458 296.751 -8.68971 297.889C-8.17468 298.921 -7.2067 300.001 -5.95589 299.931ZM12.901 274.847C14.1075 275.339 15.3499 275.811 16.4482 276.523C17.7852 277.39 18.8425 278.667 19.4642 280.139C19.9346 281.252 20.4335 283.862 18.6443 284.149C17.7863 284.287 16.7587 283.764 16.0424 283.363C15.2575 282.925 14.5408 282.374 13.8782 281.768C12.0821 280.123 10.6088 278.124 9.50214 275.946C9.3279 275.605 9.1635 275.257 9.00722 274.907C8.6693 274.147 8.37834 273.369 8.13296 272.576C8.26375 272.666 8.39609 272.754 8.53083 272.838C9.89132 273.69 11.4727 274.265 12.901 274.847ZM65.314 311.345C64.8515 312.737 64.2169 314.067 63.425 315.303C62.6668 316.485 61.6636 317.997 60.1912 318.292C58.4588 318.638 57.7012 317.22 57.9765 315.698C58.2413 314.233 58.8712 312.706 59.7973 311.537C61.5068 309.38 64.6389 308.778 66.1889 306.556C66.1237 308.169 65.8348 309.782 65.314 311.345ZM70.2839 328.68C70.3327 329.941 70.1887 331.232 69.9441 332.471C69.7113 333.644 69.0841 335.347 67.607 335.291C66.1291 335.237 65.8738 333.256 66.0334 332.128C66.1977 330.972 66.745 329.894 67.3309 328.899C68.0787 327.627 68.9697 326.368 69.5347 325.005C69.8759 326.21 70.2359 327.411 70.2839 328.68ZM77.2101 335.142C77.6786 336.709 78.9147 341.257 75.7513 340.547C74.7407 340.321 73.9786 339.482 73.7175 338.492C73.4116 337.328 73.9443 336.196 74.5016 335.198C74.946 334.404 75.4582 333.57 75.7706 332.699C76.0111 333.009 76.2592 333.313 76.5203 333.607C76.6201 333.718 76.7212 333.83 76.8231 333.941C76.9629 334.341 77.0905 334.742 77.2101 335.142ZM82.4121 334.412C82.976 334.538 83.6217 334.602 84.1321 334.886C84.9295 335.33 84.9616 336.214 84.0221 336.547C81.9714 337.27 79.795 335.681 78.3743 334.386C78.0674 334.107 77.77 333.816 77.4847 333.515C77.2907 333.312 77.1022 333.103 76.9189 332.889C76.8195 332.774 76.7204 332.656 76.6247 332.538C76.8228 332.637 77.0231 332.731 77.2262 332.821C77.6262 332.999 78.0336 333.162 78.4459 333.312C78.5708 333.357 78.6944 333.402 78.8208 333.444C79.9953 333.843 81.2015 334.143 82.4121 334.412ZM84.0444 328.033C83.8797 328.687 83.4059 329.219 82.6869 329.056C82.153 328.934 81.6792 328.464 81.2622 328.131C80.1953 327.279 79.136 326.415 78.1585 325.46C77.2172 324.542 76.3574 323.542 75.6658 322.42C75.0571 321.428 74.5597 320.372 74.0267 319.336C75.6615 320.588 77.5146 321.512 79.3287 322.499C81.224 323.532 84.7384 325.285 84.0444 328.033ZM78.0818 311.214C80.4626 310.925 83.5197 310.007 85.3542 312.096C85.8088 312.614 86.1209 313.26 86.2345 313.943C86.4015 314.946 85.9556 315.566 85.0503 315.962C83.8226 316.497 82.4208 316.396 81.1664 316.047C78.2601 315.239 75.6814 313.235 73.5675 311.149C73.3852 310.968 73.2049 310.787 73.0264 310.603C74.5902 311.247 76.299 311.43 78.0818 311.214ZM120.973 323.257C122.125 325.119 122.821 327.262 122.982 329.46C123.106 331.147 123.175 336.16 120.415 335.456C117.519 334.718 118.706 330.429 119.276 328.475C119.74 326.886 120.249 325.235 120.276 323.59C120.288 322.883 120.212 322.177 120.002 321.479C120.16 321.662 120.314 321.851 120.466 322.046C120.526 322.122 120.585 322.198 120.643 322.278C120.758 322.603 120.867 322.929 120.973 323.257ZM126.506 323.433C127.573 324.02 128.612 324.657 129.617 325.342C130.571 325.991 131.638 326.658 132.411 327.522C133.257 328.467 133.167 329.614 132.875 330.778C132.686 331.535 132.415 332.027 131.577 332.023C131.005 332.02 130.419 331.871 129.884 331.681C127.684 330.898 126.024 329.043 124.746 327.157C123.803 325.765 122.979 324.295 122.041 322.905C121.533 322.149 120.99 321.418 120.376 320.737C120.579 320.807 120.78 320.876 120.982 320.949C122.885 321.632 124.732 322.456 126.506 323.433ZM145.462 319.958C145.439 321.361 145.313 322.85 144.714 324.139C144.167 325.316 142.54 326.957 141.225 325.752C140.228 324.835 140.001 322.814 140.012 321.522C140.027 319.823 140.939 318.548 142.019 317.317C142.865 316.355 143.827 315.222 144.316 313.988C145.108 315.846 145.493 317.916 145.462 319.958ZM154.009 332.685C153.951 334.284 153.705 336.002 153.023 337.472C152.622 338.337 151.929 339.085 150.895 338.874C150.011 338.693 149.299 338 148.849 337.245C147.932 335.706 147.991 333.838 148.246 332.115C148.532 330.174 148.944 328.248 149.301 326.318C149.676 324.299 150.128 322.276 150.408 320.242C150.443 319.996 150.47 319.745 150.485 319.492C152.477 323.667 154.179 327.97 154.009 332.685ZM159.512 323.481C160.354 324.229 161.109 325.135 161.466 326.225C161.872 327.462 161.749 329.264 160.188 329.573C157.337 330.137 156.041 326.254 155.361 324.215C155.127 323.518 154.948 322.752 154.747 321.986C154.585 321.373 154.41 320.762 154.179 320.185C154.252 320.219 154.324 320.253 154.395 320.287C156.211 321.161 158.028 322.161 159.512 323.481ZM163.271 313.854C164.712 312.881 165.887 311.556 167.351 310.624C168.722 309.75 171.085 309.221 172.154 310.837C173.048 312.189 172.139 314.003 171.168 315.051C170.046 316.259 168.57 317.097 167.009 317.575C163.535 318.639 159.911 317.957 156.598 316.73C156.342 316.636 156.087 316.537 155.834 316.435C158.477 316.257 161.058 315.349 163.271 313.854ZM149.005 310.244C149.959 309.453 150.65 308.44 151.385 307.456C152.122 306.466 153.012 305.411 154.235 305.043C155.221 304.745 156.509 305.064 156.913 306.105C157.796 308.386 153.4 309.746 151.891 310.129C150.804 310.404 149.687 310.557 148.565 310.583C148.715 310.476 148.861 310.362 149.005 310.244ZM168.297 290.648C166.706 288.326 163.979 285.908 164.662 282.753C165.019 281.109 166.568 279.966 168.174 280.771C169.422 281.398 170.348 282.697 170.975 283.912C171.659 285.237 172.058 286.713 172.155 288.205C172.276 290.048 171.754 291.52 170.76 293.057C170.457 293.526 170.14 293.997 169.804 294.461C169.668 293.101 169.047 291.743 168.297 290.648ZM177.403 296.082C178.722 295.987 180.048 295.995 181.362 296.127C182.061 296.198 182.911 296.224 183.535 296.573C184.333 297.02 184.146 297.961 183.757 298.637C182.22 301.3 178.708 301.536 176.03 301.15C172.825 300.689 169.644 299.89 166.476 299.191C166.306 299.154 166.138 299.117 165.97 299.081C166.238 298.939 166.498 298.785 166.751 298.617C167.156 298.468 167.565 298.324 167.974 298.184C171.04 297.133 174.177 296.312 177.403 296.082ZM156.433 290.114C157.26 289.146 158.212 287.884 159.618 288.001C160.198 288.049 160.757 288.278 161.275 288.527C161.969 288.86 162.631 289.15 162.518 290.056C162.338 291.497 161.87 292.964 160.679 293.882C159.639 294.685 158.308 295.012 157.046 295.25C155.896 295.468 154.694 295.628 153.57 295.969C153.528 295.981 153.485 295.995 153.443 296.007C153.746 295.324 153.946 294.594 154.031 293.854C154.05 293.697 154.063 293.54 154.07 293.381C154.769 292.234 155.557 291.139 156.433 290.114ZM151.228 296.812C151.119 295.876 150.763 295.225 150.238 294.454C149.577 293.487 148.832 292.597 148.025 291.754C147.536 291.244 146.971 290.675 147.502 289.944C147.864 289.448 148.524 289.168 149.089 288.984C150.442 288.542 151.631 288.693 152.444 289.959C152.976 290.791 153.26 291.779 153.305 292.767C153.31 292.902 153.312 293.038 153.311 293.173C153.296 294.162 153.056 295.133 152.613 296.002C152.505 296.158 152.396 296.313 152.284 296.466C151.967 296.905 151.638 297.335 151.297 297.753C151.295 297.756 151.292 297.758 151.289 297.761C151.288 297.623 151.285 297.484 151.276 297.345C151.271 297.264 151.265 297.184 151.258 297.103C151.25 297.006 151.24 296.909 151.228 296.812ZM115.723 298.234C118.184 297.024 121.482 295.428 124.162 296.851C124.851 297.215 125.471 297.883 125.249 298.73C125.062 299.443 124.383 299.965 123.742 300.253C122.271 300.914 120.484 300.53 119.002 300.144C117.361 299.717 115.579 299.146 113.859 299.129C114.484 298.839 115.106 298.537 115.723 298.234ZM130.866 280.496C132.127 280.127 133.493 279.815 134.81 279.85C136.125 279.885 137.809 280.616 137.168 282.237C136.195 284.699 132.869 284.909 130.731 284.323C128.984 283.845 127.214 282.987 125.394 283C127.096 281.937 128.91 281.068 130.866 280.496ZM134.047 263.927C135.325 263.072 136.687 262.334 138.108 261.754C138.858 261.448 139.773 261.083 140.582 261.347C141.508 261.649 141.883 262.702 141.884 263.601C141.886 267.212 137.932 268.917 134.916 269.184C132.79 269.372 130.138 268.968 128.055 269.741C129.685 267.467 131.729 265.482 134.047 263.927ZM118.167 268.117C117.308 267.46 116.223 266.272 116.941 265.129C117.549 264.162 118.839 263.626 119.926 263.538C121.198 263.436 122.319 263.952 123.302 264.719C124.268 265.474 125.302 266.442 125.71 267.633C126.093 268.754 126.049 270.06 125.967 271.258C125.956 271.271 125.946 271.285 125.937 271.299C125.84 271.426 125.749 271.56 125.664 271.703C125.567 271.863 125.6 272.02 125.69 272.131C125.62 272.265 125.551 272.401 125.483 272.536C125.407 272.451 125.329 272.368 125.246 272.287C125.095 272.133 124.936 271.988 124.77 271.85C122.801 270.213 120.192 269.664 118.167 268.117ZM114.708 283.625C113.915 282.42 113.107 281.23 112.545 279.892C112.003 278.598 111.661 277.226 111.376 275.854C111.242 275.214 111.103 274.568 111.001 273.923C110.926 273.434 110.862 272.86 111.395 272.594C111.829 272.377 112.359 272.446 112.798 272.581C114.165 273.003 115.204 274.307 115.974 275.454C117.425 277.621 118.225 280.228 118.201 282.853C118.183 284.817 117.705 286.747 116.85 288.498C116.614 286.741 115.696 285.123 114.708 283.625ZM104.716 291.123C104.089 290.135 103.449 289.054 103.397 287.845C103.35 286.778 103.895 285.63 105.001 285.341C107.681 284.638 107.47 289.664 107.305 291.191C107.174 292.406 106.888 293.608 106.464 294.761C106.111 293.488 105.478 292.321 104.716 291.123ZM90.7606 290.559C91.6398 290.863 93.2989 291.579 93.3984 292.652C93.4516 293.211 92.9414 293.833 92.6092 294.277C92.2415 294.766 91.7973 295.213 91.2187 295.434C90.1056 295.861 88.7113 295.459 87.5933 295.24C86.4002 295.009 85.2175 294.721 84.0522 294.376C81.8469 293.725 79.714 292.877 77.6641 291.847C77.4722 291.75 77.2808 291.653 77.0912 291.553C77.9704 291.528 78.8559 291.418 79.7435 291.264C83.4229 290.636 87.1509 289.308 90.7606 290.559ZM82.0301 285.357C83.055 283.623 85.5289 279.711 88.0035 281.567C89.2639 282.513 88.4244 283.872 87.6975 284.873C86.969 285.878 86.0933 286.772 85.1236 287.542C83.4323 288.885 81.4529 289.8 79.3617 290.243C79.0376 290.399 78.7113 290.55 78.3826 290.696C78.2826 290.706 78.1826 290.717 78.082 290.725C77.8467 290.748 77.612 290.763 77.3764 290.774C78.0287 290.441 78.5961 290.012 79.1031 289.519C80.3069 288.348 81.1706 286.814 82.0301 285.357ZM51.0365 264.568C53.2543 264.976 55.4847 265.374 57.6496 265.962C60.1028 266.627 62.6445 267.836 63.8448 270.22C64.4256 271.372 64.7648 273.029 63.7884 274.082C62.956 274.979 61.6574 275.237 60.4943 275.089C57.8157 274.753 56.0505 272.592 54.6628 270.467C53.5485 268.762 52.5031 266.935 51.0621 265.526C50.5844 265.057 50.0631 264.634 49.4804 264.279C49.4366 264.272 49.3915 264.263 49.3464 264.255C49.2657 264.189 49.1829 264.124 49.1012 264.06C49.2307 264.129 49.3573 264.201 49.4803 264.279C49.9977 264.378 50.5178 264.473 51.0365 264.568ZM68.9875 258.984C72.0686 259.414 75.7269 260.205 77.5419 262.996C78.3226 264.197 78.7989 266 77.8711 267.278C76.9447 268.554 75.0649 268.175 73.7677 267.912C72.1083 267.577 70.4468 267.096 69.0135 266.174C67.6301 265.284 66.6407 263.978 65.6991 262.65C64.9435 261.584 64.1233 260.435 63.1578 259.489C62.9233 259.259 62.6804 259.042 62.4279 258.841C62.4844 258.82 62.5394 258.798 62.5933 258.775C62.6077 258.769 62.621 258.765 62.6341 258.759L62.6362 258.758C64.7567 258.618 66.8847 258.692 68.9875 258.984ZM65.196 246.536C65.66 245.038 66.5072 243.378 68.3491 243.954C69.5935 244.342 70.4568 245.486 70.819 246.707C71.6144 249.392 69.8854 252.155 68.1235 254.056C66.5344 255.771 64.5924 257.112 62.4529 258.004C62.326 258.014 62.1993 258.024 62.0724 258.034C64.6753 255.168 64.1141 250.019 65.196 246.536ZM41.8122 244.849C43.4283 242.487 45.7231 240.208 48.3535 239.022C49.8034 238.367 51.5227 238.602 52.3991 240.029C53.1054 241.182 53.0826 242.712 52.5588 243.942C51.3238 246.842 47.8617 248.601 45.1101 249.725C43.6066 250.338 42.0394 250.662 40.5008 251.155C40.1564 251.266 39.8171 251.389 39.4919 251.536C39.2806 251.629 39.0749 251.734 38.876 251.848C38.9511 251.462 39.0375 251.078 39.1383 250.697C39.6828 248.616 40.591 246.636 41.8122 244.849ZM46.108 275.939C46.6965 277.096 47.2575 278.399 47.4623 279.693C47.7971 281.816 44.3814 280.732 43.4577 280.206C40.8409 278.715 39.5988 275.817 38.8333 273.031C38.6629 272.413 38.5158 271.749 38.3651 271.071C38.1753 270.219 37.9798 269.342 37.7235 268.495C37.6593 268.281 37.5909 268.068 37.5176 267.859C41.1915 269.449 44.2856 272.349 46.108 275.939ZM-5.43935 259.998C-7.01517 260.45 -11.1103 260.348 -10.1574 257.667C-9.33071 255.338 -6.34062 255.925 -4.56029 256.415C-3.7401 256.641 -2.89609 256.869 -2.05245 256.962C-1.79877 256.991 -1.54393 257.007 -1.2914 257.006C-1.52492 257.311 -1.77499 257.603 -2.04187 257.878C-2.9811 258.851 -4.11189 259.617 -5.43935 259.998ZM-10.6756 277.806C-11.8871 278.82 -13.1915 279.723 -14.5977 280.438C-15.8614 281.08 -17.4086 281.781 -18.8531 281.506C-20.2357 281.244 -20.9255 280.012 -20.8332 278.665C-20.7412 277.308 -19.9529 276.199 -18.8358 275.466C-16.556 273.97 -13.5308 273.854 -10.9278 273.396C-9.50326 273.146 -8.0779 272.84 -6.71989 272.364C-6.32186 272.225 -5.92928 272.072 -5.54386 271.901C-5.6789 272.17 -5.82502 272.433 -5.98162 272.69C-7.17796 274.67 -8.93953 276.351 -10.6756 277.806ZM-0.576963 287.955C0.306114 288.661 1.28819 289.242 2.35245 289.686C4.87147 290.734 8.21601 291.183 9.63589 293.839C10.3916 295.254 10.1196 297.193 8.18207 297.105C6.9532 297.05 5.65802 296.521 4.58643 295.956C2.40088 294.803 0.580944 292.979 -0.571039 290.788C-0.57676 290.777 -0.581385 290.767 -0.587106 290.756C-0.871986 290.211 -1.10958 289.648 -1.30318 289.069C-1.54554 288.343 -1.71671 287.593 -1.81925 286.825C-1.81973 286.823 -1.82013 286.821 -1.81935 286.819C-1.70303 286.945 -1.58229 287.065 -1.45833 287.184C-1.17766 287.455 -0.883205 287.714 -0.576963 287.955ZM-8.29309 296.806C-8.65646 295.576 -8.5552 294.181 -7.93963 293.037C-7.21695 291.692 -5.85843 290.895 -4.8082 289.842C-3.85623 288.886 -3.11902 287.744 -2.62738 286.504C-2.60398 286.715 -2.57854 286.926 -2.54841 287.137C-2.3603 288.449 -1.96527 289.721 -1.37585 290.904C-1.53394 292.451 -1.94771 293.984 -2.66427 295.454C-3.24106 296.637 -4.02593 297.957 -5.08235 298.772C-6.57458 299.922 -7.90065 298.131 -8.29309 296.806Z" fill="#E8E1DB"/>
<path d="M1699.93 13.4339C1700 13.5079 1700.07 13.5832 1700.14 13.6599C1705.55 20.7767 1708.8 29.5575 1710.56 38.3098C1711.98 45.3944 1712.48 52.5793 1713.04 59.7682C1713.56 66.4217 1714.34 73.3268 1717.47 79.3382C1719.26 82.7905 1721.88 85.9828 1725.12 88.1809C1725.2 88.2342 1725.28 88.2862 1725.36 88.3384C1727.69 92.3762 1731.01 95.8773 1735.21 97.9908C1737.55 99.171 1740.06 99.9743 1742.57 100.695C1745.08 101.415 1747.62 102.045 1750.2 102.45C1750.6 102.512 1750.99 102.567 1751.38 102.619C1745.66 102.898 1739.93 103.088 1734.2 103.093C1727.62 103.099 1721.02 102.547 1714.49 101.732C1713.41 101.596 1712.32 101.452 1711.24 101.298C1711.23 101.295 1711.22 101.293 1711.22 101.292C1702.13 99.2824 1693.83 94.3838 1687.07 88.062C1683.93 85.1209 1681.13 81.8163 1678.57 78.3544C1676.67 75.773 1674.98 73.0374 1673.81 70.042C1673.56 69.4049 1673.33 68.7594 1673.12 68.1091C1673.12 68.0992 1673.13 68.0892 1673.14 68.0789C1673.14 68.0625 1673.15 68.0473 1673.16 68.0309C1677.03 60.7968 1677.17 51.7101 1675.44 43.784C1673.71 35.8536 1670.35 28.4388 1667.55 20.849L1667.55 20.8477C1667 18.5472 1666.32 16.2738 1665.48 14.0366C1665.34 13.6696 1665.2 13.305 1665.05 12.9408C1664.95 12.6855 1664.84 12.4306 1664.74 12.1758C1664.74 12.1726 1664.74 12.1682 1664.74 12.164L1664.74 12.1651C1664.59 12.4142 1664.44 12.6646 1664.3 12.9186C1664.29 12.9372 1664.28 12.9561 1664.27 12.9753C1662.66 15.8904 1661.66 19.094 1661.08 22.443C1660.23 27.32 1659.83 32.3495 1659.59 37.293C1659.18 46.0094 1660.2 55.2112 1665.6 62.3972C1667.35 64.7135 1669.6 66.8542 1672.2 68.3018C1672.3 68.3605 1672.41 68.4181 1672.51 68.4741C1672.59 68.7081 1672.67 68.9425 1672.75 69.1747C1673.82 72.2089 1675.37 75.0188 1677.21 77.6456C1682.37 84.9839 1688.81 91.4364 1696.52 96.0653C1699.44 97.8162 1702.53 99.2958 1705.73 100.431C1701.76 99.7406 1697.81 98.9121 1693.9 97.9172C1693.88 97.9091 1693.86 97.9024 1693.84 97.898C1693.81 97.8915 1693.77 97.8835 1693.74 97.877C1693.74 97.8762 1693.73 97.8753 1693.73 97.8729C1691.67 97.3496 1689.63 96.7785 1687.61 96.1582C1679.06 93.5442 1670.95 89.8379 1663.06 85.6741C1655.53 81.7013 1648.13 77.4698 1640.38 73.9198C1640.08 73.7788 1639.77 73.6389 1639.46 73.5005C1639.39 73.3773 1639.32 73.2552 1639.25 73.1342C1639.23 73.1122 1639.22 73.0898 1639.21 73.0673C1634.41 65.0893 1625.8 59.6889 1617.22 56.3967C1607.39 52.6217 1596.82 50.82 1587.02 46.9987C1586.47 46.7846 1585.93 46.5644 1585.38 46.3374C1585.6 46.553 1585.82 46.7688 1586.04 46.9843C1586.24 47.1859 1586.44 47.3862 1586.65 47.5878C1586.98 47.9211 1587.32 48.2541 1587.66 48.5874C1589.55 50.4576 1591.44 52.3269 1593.34 54.1856C1596.91 57.6736 1600.57 61.0946 1604.62 64.0259C1612.29 69.5798 1621.38 72.9552 1630.81 73.7369C1633.35 73.9473 1635.89 73.9713 1638.42 73.8091C1652.83 80.3167 1666.13 89.1296 1681 94.6428C1671.36 91.9285 1661.81 88.8617 1651.97 86.976C1651.82 86.9358 1651.66 86.8955 1651.51 86.8565C1642.05 84.4237 1632.41 82.5524 1622.64 83.0746C1616.12 83.4244 1609.87 85.0809 1603.72 87.1794C1598.23 89.0537 1592.81 91.0105 1587.18 92.4378C1584.43 93.1346 1581.63 93.7678 1578.81 94.253C1578.19 94.3602 1577.56 94.4603 1576.94 94.5506C1577.33 94.6496 1577.74 94.7409 1578.14 94.8241C1578.34 94.8657 1578.55 94.9059 1578.75 94.9445C1579.2 95.0298 1579.65 95.1055 1580.1 95.1729C1580.42 95.2216 1580.75 95.2666 1581.07 95.3072C1587.87 96.1511 1594.62 95.2155 1601.33 94.1639C1608.55 93.0304 1615.91 91.8005 1623.24 92.7851C1627.08 93.302 1630.85 94.323 1634.72 94.6394C1637.74 94.8856 1640.75 94.6314 1643.67 93.8424C1647.54 92.7981 1651.15 90.8755 1654.18 88.2738C1654.24 88.226 1654.29 88.178 1654.35 88.1298C1663.61 90.083 1672.71 93.024 1681.78 95.5634C1685.71 96.6631 1689.65 97.6994 1693.64 98.5574C1698.25 99.7321 1702.92 100.673 1707.6 101.435C1708.78 101.626 1709.95 101.806 1711.13 101.977C1718.07 102.983 1725.08 103.63 1732.08 103.762C1740.81 103.927 1749.58 103.418 1758.29 102.929C1758.32 102.927 1758.35 102.925 1758.37 102.924C1758.81 102.906 1759.26 102.881 1759.7 102.848C1759.7 102.848 1759.7 102.847 1759.7 102.848C1760.53 102.801 1761.36 102.751 1762.19 102.699C1756.62 104.086 1751.25 106.343 1745.93 108.524C1743.46 109.537 1741.04 110.52 1738.68 111.776C1737.24 112.541 1735.82 113.053 1734.17 113.062C1732.76 113.069 1731.34 112.815 1729.96 112.516C1729.63 112.445 1729.3 112.369 1728.97 112.29C1729.01 112.287 1729.06 112.285 1729.1 112.283C1728.76 112.19 1728.42 112.097 1728.07 112.008C1727.5 111.672 1726.92 111.353 1726.36 111.049C1723.24 109.344 1719.9 108.067 1716.46 107.165C1709.36 105.3 1701.92 105.022 1694.64 105.515C1679.32 106.55 1664.61 111.311 1649.41 113.098C1648.3 113.229 1647.2 113.341 1646.09 113.435C1646.06 113.438 1646.04 113.44 1646.01 113.442C1645.58 113.48 1645.14 113.513 1644.7 113.543C1645.12 113.741 1645.53 113.936 1645.95 114.127C1645.96 114.129 1645.96 114.131 1645.96 114.132C1651.42 116.623 1657.13 118.532 1662.98 119.843C1671.02 121.645 1679.31 122.319 1687.53 121.838C1695.83 121.354 1703.97 119.644 1711.78 116.855C1716.07 115.323 1720.31 113.762 1724.87 113.271C1726.03 113.148 1727.18 113.068 1728.34 113.009C1728.48 113.002 1728.62 112.995 1728.77 112.989C1730.26 113.347 1731.77 113.617 1733.28 113.717C1735 113.829 1736.61 113.561 1738.17 112.808C1738.91 112.451 1739.62 112.043 1740.35 111.663C1741.48 111.071 1742.65 110.592 1743.84 110.115C1748.1 108.401 1752.32 106.559 1756.67 105.053C1760.28 103.802 1763.98 102.814 1767.76 102.343C1776.8 101.727 1785.84 100.94 1794.84 99.8882C1800.25 99.2551 1805.65 98.5285 1811 97.5529C1814.92 96.8396 1818.89 96.0525 1822.64 94.6981C1823.31 94.4586 1823.96 94.1961 1824.6 93.8953C1825 93.7107 1824.78 93.0583 1824.38 93.2463C1821.16 94.7529 1817.59 95.5341 1814.13 96.2507C1809.06 97.3022 1803.93 98.052 1798.8 98.7104C1789.85 99.858 1780.85 100.697 1771.84 101.36C1771.82 101.358 1771.8 101.358 1771.78 101.358C1770.44 101.383 1769.11 101.483 1767.79 101.647C1766.03 101.768 1764.27 101.882 1762.51 101.991C1761.57 102.049 1760.64 102.106 1759.7 102.162C1759.7 102.162 1759.7 102.162 1759.7 102.162C1759.68 102.161 1759.67 102.162 1759.65 102.163C1759.58 102.168 1759.5 102.173 1759.43 102.178C1759.28 102.189 1759.13 102.198 1758.97 102.205C1758.93 102.208 1758.89 102.211 1758.85 102.212C1753.79 102.474 1748.83 101.7 1743.95 100.37C1738.92 98.9988 1734.03 97.2993 1730.23 93.566C1728.6 91.962 1727.21 90.1359 1726.05 88.1712C1726.09 88.1276 1726.13 88.0823 1726.17 88.0386C1726.22 87.9911 1726.26 87.9425 1726.3 87.8936C1729.47 84.3673 1731.65 79.9094 1732.69 75.2771C1734.71 66.2622 1732.93 56.6609 1729.76 48.1157C1726.88 40.3789 1722.58 33.1897 1717.14 26.9792C1714.41 23.8564 1711.39 20.9854 1708.12 18.4264C1705.66 16.4989 1703.07 14.7563 1700.49 12.9869C1700.46 12.9647 1700.42 12.9414 1700.39 12.9195C1699.89 12.5745 1699.39 12.2295 1698.89 11.8808C1698.74 11.777 1698.59 11.6731 1698.44 11.5692C1698.18 11.3855 1697.92 11.2003 1697.66 11.0134C1698.43 11.8097 1699.19 12.6155 1699.93 13.4339ZM1675.65 56.9912C1675.3 60.5081 1674.39 63.9827 1672.83 67.1156C1672.69 66.6511 1672.55 66.1844 1672.43 65.7159C1672.42 65.704 1672.42 65.6935 1672.42 65.6819C1671.79 63.2486 1671.36 60.7588 1670.98 58.2825C1670.97 58.2288 1670.95 58.182 1670.92 58.143C1669.84 50.2622 1669.99 42.0927 1669.46 34.2691C1669.25 31.1496 1668.92 28.051 1668.39 24.9932C1672.37 35.2465 1676.79 45.7832 1675.65 56.9912ZM1666.74 62.7414C1664.3 59.7339 1662.6 56.1592 1661.57 52.4326C1660.37 48.0743 1660.1 43.502 1660.21 39.0022C1660.34 34.2286 1660.79 29.4142 1661.43 24.6821C1661.81 21.9133 1662.34 19.1412 1663.33 16.5217C1663.68 15.6168 1664.07 14.7352 1664.52 13.8841C1665.25 16.4049 1666.1 18.8878 1666.99 21.3061C1667.06 21.5977 1667.13 21.8883 1667.19 22.1815C1667.93 25.544 1668.35 28.9698 1668.64 32.398C1669.21 39.3694 1669.17 46.3736 1669.74 53.3457C1670.03 56.8604 1670.49 60.3787 1671.27 63.8112C1671.28 63.8376 1671.29 63.864 1671.29 63.8905C1671.55 65.1107 1671.86 66.3231 1672.21 67.5173C1670.11 66.2829 1668.25 64.5864 1666.74 62.7414ZM1588.81 48.4276C1588.77 48.4056 1588.73 48.3848 1588.69 48.3642C1589.67 48.722 1590.66 49.0605 1591.64 49.3791C1604.55 53.5757 1618.64 55.5787 1629.77 63.9197C1633.05 66.379 1635.98 69.3371 1638.19 72.7637C1637.18 72.4037 1636.18 72.0335 1635.18 71.65C1634.74 71.4668 1634.29 71.286 1633.85 71.1067C1633.8 71.0867 1633.75 71.0774 1633.7 71.0794C1629.53 69.439 1625.43 67.6257 1621.38 65.722C1615.84 63.1247 1610.42 60.3288 1605.06 57.3775C1599.65 54.3917 1594.28 51.3147 1588.81 48.4276ZM1618.58 70.505C1614.07 68.9813 1609.79 66.8166 1605.89 64.0928C1601.93 61.3291 1598.35 58.0759 1594.88 54.726C1593.15 53.0579 1591.44 51.3742 1589.73 49.6858C1594.16 52.0556 1598.54 54.5429 1602.92 56.9772C1613.23 62.7014 1623.8 68.0418 1634.83 72.249C1635.57 72.557 1636.3 72.8715 1637.03 73.1936C1630.79 73.4253 1624.51 72.5085 1618.58 70.505ZM1601.03 88.8451C1607.27 86.6364 1613.59 84.5932 1620.21 83.9484C1626.6 83.3235 1633.05 83.8326 1639.37 84.912C1640.79 85.1545 1642.2 85.424 1643.61 85.7164C1641.66 85.5086 1639.71 85.3677 1637.76 85.3046C1634.04 84.9476 1630.3 84.7399 1626.56 84.9113C1622.64 85.091 1618.81 85.8549 1614.97 86.6522C1611.09 87.4605 1607.23 88.3642 1603.37 89.287C1598.55 90.44 1593.74 91.6193 1588.91 92.6883C1593 91.5826 1597.03 90.2645 1601.03 88.8451ZM1653.38 88.0595C1650.85 90.1505 1647.92 91.7644 1644.8 92.7882C1642.07 93.6811 1639.21 94.1213 1636.34 94.046C1632.49 93.9448 1628.73 92.9704 1624.94 92.3478C1617.89 91.1873 1610.86 91.989 1603.87 93.0715C1597.24 94.0963 1590.59 95.2899 1583.86 94.8782C1583.34 94.8467 1582.83 94.8069 1582.32 94.7558C1588.39 93.5816 1594.41 92.146 1600.42 90.7002C1604.29 89.7707 1608.15 88.8378 1612.03 87.9815C1615.94 87.1188 1619.89 86.1992 1623.88 85.7966C1628.5 85.3277 1633.13 85.5453 1637.75 85.9903C1641.29 86.3306 1644.82 86.8056 1648.34 87.2058C1649.32 87.3177 1650.3 87.4234 1651.28 87.5225C1651.32 87.5291 1651.36 87.537 1651.41 87.5451C1652.06 87.7139 1652.72 87.8855 1653.38 88.0595ZM1668.29 110.49C1682.8 107.476 1697.8 104.263 1712.64 107.016C1716.62 107.755 1720.51 108.945 1724.17 110.697C1724.6 110.905 1725.03 111.121 1725.46 111.344C1724.69 111.119 1723.93 110.885 1723.17 110.647C1723 110.595 1722.88 110.668 1722.82 110.785C1722.19 110.66 1721.57 110.543 1720.94 110.436C1715.81 109.562 1710.74 109.66 1705.58 110.18C1693.63 111.383 1681.92 114.425 1669.89 114.88C1662.89 115.145 1655.9 114.706 1648.96 113.836C1655.47 113.104 1661.94 111.807 1668.29 110.49ZM1721.2 113.155C1719.04 113.614 1716.94 114.294 1714.86 115.023C1710.83 116.437 1706.84 117.882 1702.68 118.894C1698.6 119.888 1694.43 120.568 1690.25 120.947C1681.99 121.693 1673.63 121.257 1665.49 119.666C1659.64 118.523 1653.91 116.785 1648.42 114.461C1654.08 115.187 1659.78 115.632 1665.5 115.644C1671.44 115.657 1677.32 115.125 1683.19 114.246C1689.2 113.346 1695.17 112.201 1701.19 111.391C1706.7 110.652 1712.33 110.05 1717.87 110.689C1720.36 110.977 1722.83 111.445 1725.27 112.016C1725.72 112.155 1726.18 112.292 1726.64 112.424C1724.81 112.558 1722.99 112.774 1721.2 113.155ZM1718.6 79.9844C1715.16 74.013 1714.31 66.9488 1713.77 60.1995C1713.2 53.0998 1712.74 46.0058 1711.39 38.9967C1710.12 32.4086 1708.15 25.9319 1705 19.9882C1704.66 19.3502 1704.31 18.7207 1703.94 18.097C1706.57 21.3781 1708.95 24.8506 1710.95 28.5752C1713.09 32.5555 1714.77 36.8008 1715.76 41.2132C1716.86 46.1448 1716.85 51.1756 1716.81 56.2014C1716.77 60.9234 1716.81 65.634 1717.77 70.2786C1718.59 74.2348 1719.93 78.0707 1721.74 81.6839C1722.63 83.4649 1723.64 85.1926 1724.74 86.8456C1724.71 86.8979 1724.69 86.957 1724.69 87.0198C1722.21 85.1468 1720.15 82.6717 1718.6 79.9844ZM1704.01 16.2485C1707.24 18.5232 1710.32 20.9803 1713.15 23.7505C1719.03 29.5169 1723.84 36.3845 1727.26 43.8792C1730.95 51.9737 1733.37 61.1137 1732.75 70.0565C1732.31 76.3223 1730.06 82.6383 1725.91 87.3351C1724.98 86.0151 1724.12 84.6455 1723.33 83.2342C1721.34 79.6702 1719.82 75.8446 1718.84 71.8839C1717.71 67.3537 1717.46 62.7375 1717.48 58.0861C1717.5 53.0717 1717.69 48.0289 1716.82 43.0635C1716.05 38.6627 1714.59 34.4061 1712.65 30.389C1709.93 24.7954 1706.34 19.7361 1702.29 15.0518C1702.86 15.4491 1703.44 15.8462 1704.01 16.2485Z" fill="#E8E1DB"/>
<path d="M1565.76 252.014C1565.98 251.945 1566.2 251.873 1566.41 251.794C1575.03 248.697 1578.99 239.022 1580.53 230.619C1581.57 224.983 1581.93 219.238 1583.11 213.629C1584.13 208.754 1585.92 204.134 1588.63 199.955C1593.7 192.142 1601.21 186.291 1608.98 181.373C1617.05 176.262 1625.68 172.12 1633.73 166.967C1636.19 165.387 1638.63 163.706 1640.95 161.887C1641.01 161.805 1641.06 161.721 1641.12 161.639C1641.48 161.105 1641.85 160.571 1642.21 160.039C1645.47 155.32 1648.93 150.704 1652.85 146.556C1651.76 146.997 1650.68 147.448 1649.6 147.908C1649.44 147.975 1649.28 148.044 1649.12 148.111C1646.88 149.072 1644.65 150.07 1642.44 151.105C1641.75 151.424 1641.06 151.75 1640.37 152.078C1638.52 152.967 1636.67 153.88 1634.84 154.816C1633.73 155.381 1632.63 155.954 1631.53 156.534C1627.45 159.278 1623.6 162.387 1619.88 165.593C1612.18 172.239 1604.87 179.389 1596.58 185.317C1587.89 191.527 1578.11 196.03 1567.89 199.05C1557.54 202.106 1546.8 203.685 1536.05 204.34C1530.57 204.675 1525.08 204.767 1519.59 204.678C1516.88 204.633 1514.17 204.545 1511.47 204.417C1508.82 204.293 1506.08 203.974 1503.45 204.477C1503.45 204.476 1503.44 204.478 1503.44 204.479C1503.09 204.547 1502.75 204.63 1502.41 204.731C1502.6 204.43 1502.76 204.117 1502.92 203.797C1503.16 203.316 1503.39 202.822 1503.63 202.342C1504.1 201.41 1504.68 200.538 1505.34 199.738C1505.59 199.429 1505.86 199.13 1506.15 198.845C1506.24 198.754 1506.33 198.665 1506.42 198.577C1507.13 198.282 1507.85 198.033 1508.59 197.818C1512.18 196.754 1515.99 196.495 1519.69 195.831C1524.19 195.023 1528.61 193.683 1532.74 191.712C1536.86 189.747 1540.7 187.151 1543.9 183.874C1547.5 180.198 1549.83 175.588 1553.04 171.598C1558.47 164.824 1565.98 160.119 1574.01 157.04C1580.23 154.653 1586.73 153.246 1593.31 152.402C1590.45 151.67 1587.76 150.424 1585.21 148.922C1580.01 145.845 1575.44 141.798 1570.13 138.885C1564.49 135.784 1558.05 134.233 1551.64 134.363C1551.13 134.372 1550.62 134.393 1550.11 134.426C1550.53 134.153 1550.96 133.874 1551.38 133.592C1553.68 132.047 1555.93 130.39 1558.21 128.89C1561.36 126.818 1564.67 125.026 1568.31 123.97C1572.33 122.8 1576.55 122.442 1580.72 122.449C1585.01 122.456 1589.3 122.827 1593.57 123.199C1597.76 123.563 1601.99 124.039 1606.03 125.301C1609.76 126.469 1613.07 128.392 1616.08 130.888C1618.99 133.311 1621.58 136.098 1624.33 138.706C1627.53 141.742 1631 144.494 1635.15 146.075C1639.56 147.753 1644.37 148.195 1648.99 147.337C1650.71 146.6 1652.43 145.884 1654.17 145.193C1654.61 145.015 1655.05 144.842 1655.49 144.67C1655.69 144.588 1655.9 144.509 1656.1 144.43C1656.15 144.409 1656.21 144.387 1656.26 144.367C1662.98 141.761 1669.82 139.484 1676.8 137.592C1684.27 135.571 1691.85 133.957 1699.49 132.757C1699.82 132.704 1700.15 132.653 1700.47 132.605C1704.66 131.967 1708.87 131.451 1713.08 131.061C1714.26 130.952 1715.44 130.854 1716.61 130.764C1720.15 130.494 1723.69 130.313 1727.24 130.218C1744.27 129.763 1761.36 131.336 1778.01 134.966C1780.09 135.419 1782.16 135.906 1784.23 136.422C1784.72 136.544 1784.49 137.299 1784 137.176C1767.39 133.029 1750.29 130.947 1733.18 130.928C1726.53 130.922 1719.87 131.224 1713.25 131.835C1713.25 131.836 1713.25 131.836 1713.25 131.836C1712.87 131.97 1712.5 132.108 1712.12 132.25C1708.43 133.656 1704.88 135.463 1701.55 137.602C1700.47 138.293 1699.41 139.022 1698.38 139.782C1698.06 140.02 1697.73 140.262 1697.42 140.507C1696.57 143.495 1696 146.576 1695.58 149.657C1694.47 157.741 1694.25 165.935 1692.87 173.985C1692.2 177.901 1691.25 181.785 1689.76 185.471C1688.33 188.991 1686.39 192.25 1684.04 195.227C1679.4 201.119 1673.54 205.855 1667.94 210.776C1662.92 215.184 1657.92 219.86 1654.44 225.613C1653.84 227.182 1653.09 228.703 1652.14 230.153C1652.12 230.181 1652.1 230.209 1652.08 230.237C1651.85 230.59 1651.19 230.349 1651.37 229.92C1651.39 229.888 1651.4 229.856 1651.41 229.824C1652.07 228.275 1652.83 226.797 1653.68 225.377C1655.96 219.414 1655.9 212.692 1655.78 206.333C1655.71 202.384 1655.57 198.417 1655.92 194.477C1656.24 190.947 1656.91 187.451 1657.89 184.048C1661.93 170.021 1671.06 157.698 1682.38 148.705C1686.84 145.158 1691.69 142.097 1696.83 139.648C1697.15 139.491 1697.48 139.339 1697.81 139.189C1697.85 139.168 1697.9 139.147 1697.95 139.126C1701.47 136.53 1705.28 134.319 1709.29 132.565C1709.63 132.415 1709.97 132.268 1710.32 132.126C1706.88 132.489 1703.46 132.936 1700.04 133.467C1699.72 133.517 1699.4 133.566 1699.07 133.621C1693.39 134.528 1687.74 135.667 1682.14 137.032C1673.25 139.204 1664.56 141.973 1656.06 145.279C1655.7 145.417 1655.34 145.559 1654.98 145.701C1654.88 145.74 1654.78 145.778 1654.68 145.819C1653.41 147.101 1652.19 148.431 1651.01 149.794C1648.17 153.085 1645.58 156.57 1643.11 160.135C1642.68 160.751 1642.26 161.37 1641.84 161.991C1641.82 162.066 1641.81 162.141 1641.79 162.217C1640.53 168.399 1638.73 174.467 1636.41 180.333C1634.61 184.904 1632.49 189.352 1630.08 193.631C1627.56 198.102 1624.63 202.289 1621.78 206.549C1618.95 210.786 1616.49 215.16 1614.41 219.822C1612.41 224.292 1610.6 228.864 1608.15 233.108C1603.78 240.658 1597.07 246.548 1588.98 249.784C1585.02 251.368 1580.83 252.282 1576.57 252.467C1573.28 252.61 1569.95 252.377 1566.65 252.549C1566.28 252.567 1565.91 252.592 1565.55 252.622C1565.43 252.42 1565.48 252.106 1565.76 252.014ZM1577.53 156.625C1569.15 159.356 1561.14 163.713 1555.17 170.305C1551.78 174.038 1549.48 178.563 1546.26 182.427C1543.43 185.836 1539.92 188.647 1536.08 190.849C1532.17 193.095 1527.9 194.724 1523.53 195.813C1518.85 196.983 1513.96 197.138 1509.31 198.412C1508.48 198.638 1507.67 198.909 1506.87 199.234C1506.7 199.402 1506.53 199.576 1506.37 199.753C1505.4 200.803 1504.66 201.998 1504.04 203.286C1503.99 203.396 1503.94 203.505 1503.88 203.616C1504.59 203.51 1505.31 203.457 1506.04 203.439C1508.72 203.375 1511.42 203.639 1514.09 203.74C1519.62 203.947 1525.15 203.988 1530.67 203.806C1541.66 203.442 1552.66 202.192 1563.33 199.483C1573.85 196.813 1584.02 192.682 1593.12 186.73C1601.82 181.044 1609.34 173.802 1617.12 166.958C1620.1 164.342 1623.13 161.753 1626.29 159.335C1627.84 158.146 1629.41 157.001 1631.02 155.911C1632.89 154.649 1634.8 153.462 1636.78 152.378C1625.78 153.243 1614.73 153.681 1603.71 153.528C1601.05 153.491 1598.37 153.359 1595.74 152.911C1589.57 153.581 1583.46 154.692 1577.53 156.625ZM1627.17 142.255C1621.29 137.51 1616.7 131.061 1609.82 127.648C1605.88 125.695 1601.5 124.85 1597.18 124.346C1592.93 123.85 1588.63 123.515 1584.35 123.324C1580.04 123.134 1575.68 123.194 1571.44 124.023C1567.49 124.797 1563.84 126.326 1560.41 128.42C1557.83 130 1555.33 131.835 1552.79 133.581C1557.7 133.631 1562.59 134.627 1567.14 136.561C1572.81 138.975 1577.55 142.924 1582.63 146.344C1585.14 148.042 1587.77 149.617 1590.61 150.712C1592.28 151.359 1594.02 151.806 1595.77 152.112C1596.98 152.322 1598.19 152.467 1599.41 152.562C1599.86 152.597 1600.31 152.626 1600.77 152.65C1604.39 152.837 1608.04 152.765 1611.67 152.714C1615.34 152.663 1619 152.561 1622.67 152.409C1627.97 152.19 1633.26 151.865 1638.55 151.437C1639.12 151.392 1639.68 151.346 1640.24 151.297C1642.04 150.438 1643.86 149.6 1645.68 148.786C1645.92 148.678 1646.16 148.57 1646.4 148.463C1646.06 148.491 1645.71 148.51 1645.37 148.521C1638.79 148.76 1632.39 146.475 1627.17 142.255ZM1669.07 163.548C1664.77 169.357 1661.3 175.825 1659.11 182.737C1658.03 186.116 1657.25 189.599 1656.85 193.127C1656.4 196.991 1656.46 200.884 1656.53 204.769C1656.65 210.754 1656.85 217.084 1655.3 222.9C1657.98 219.117 1661.26 215.763 1664.68 212.63C1670.26 207.531 1676.29 202.888 1681.34 197.229C1683.87 194.399 1686.11 191.309 1687.8 187.905C1689.61 184.284 1690.79 180.38 1691.62 176.425C1693.31 168.344 1693.54 160.05 1694.51 151.867C1694.93 148.343 1695.48 144.786 1696.37 141.33C1696.28 141.405 1696.18 141.482 1696.09 141.557C1691.3 145.452 1687.11 150.079 1683.73 155.251C1680.23 160.605 1677.74 166.46 1676.11 172.648C1674.08 180.343 1672.89 188.448 1668.69 195.342C1668.42 195.773 1667.75 195.363 1668.02 194.93C1671.85 188.647 1673.14 181.307 1674.89 174.255C1676.45 167.949 1678.69 161.945 1682.08 156.395C1685.53 150.725 1689.95 145.641 1695.05 141.392C1684.86 146.651 1675.88 154.354 1669.07 163.548ZM1571.52 251.717C1576.11 251.756 1580.58 251.576 1585.02 250.311C1593.34 247.939 1600.84 242.657 1605.73 235.477C1608.48 231.459 1610.43 226.977 1612.37 222.529C1614.31 218.077 1616.32 213.692 1618.89 209.565C1621.61 205.205 1624.67 201.078 1627.36 196.7C1629.95 192.496 1632.24 188.109 1634.22 183.584C1637.01 177.189 1639.18 170.516 1640.69 163.695C1640.74 163.448 1640.8 163.199 1640.85 162.951C1640.44 163.266 1640.03 163.577 1639.61 163.881C1638.93 164.388 1638.24 164.883 1637.54 165.367C1629.62 170.877 1620.93 175.097 1612.66 180.036C1604.51 184.899 1596.46 190.548 1590.75 198.274C1587.79 202.285 1585.63 206.777 1584.38 211.619C1582.95 217.171 1582.55 222.915 1581.67 228.565C1580.32 237.233 1577.12 247.161 1568.87 251.568C1568.78 251.619 1568.68 251.669 1568.58 251.717C1569.56 251.703 1570.55 251.708 1571.52 251.717Z" fill="#E8E1DB"/>
</g>
<defs>
<clipPath id="clip0_354_2">
<rect width="1728" height="355" fill="white"/>
</clipPath>
</defs>
</svg>
